# xmcd
#
# Track frame offsets: 
#        150
#        15525
#        33112
#        47800
#        67512
#        85375
#        101125
#        114175
#        131137
#        142025
#        154787
#        165850
#        178100
#        189250
#
# Disc length: 2736 seconds
#
# Revision: 0
# Processed by: cddbd v1.5.2PL0 Copyright (c) Steve Scherf et al.
# Submitted via: ExactAudioCopy v0.99pb4
#
DISCID=aa0aae0e
DTITLE=區瑞強 - 英文民歌專輯
DYEAR=1900
DGENRE=Country
TTITLE0=Dick and Jane
TTITLE1=Vincent
TTITLE2=Longer
TTITLE3=Tall Pine Tree
TTITLE4=When a child is born
TTITLE5=Puff the magic dragon
TTITLE6=Greenfields
TTITLE7=The boxer
TTITLE8=Devoted to you
TTITLE9=Follow me
TTITLE10=Today
TTITLE11=Evergreen tree
TTITLE12=Yellow bird
TTITLE13=All I have to do is dream
EXTD=
EXTT0=
EXTT1=
EXTT2=
EXTT3=
EXTT4=
EXTT5=
EXTT6=
EXTT7=
EXTT8=
EXTT9=
EXTT10=
EXTT11=
EXTT12=
EXTT13=
PLAYORDER=
